<svg version="1.1" id="Layer_1" xmlns="http://www.w3.org/2000/svg" xmlns:xlink="http://www.w3.org/1999/xlink" x="0px" y="0px"
	 width="100%" viewBox="0 0 1024 672" enable-background="new 0 0 1024 672" xml:space="preserve">
<path fill="#000000" opacity="1.000000" stroke="none" 
	d="
M378.041077,232.392395 
	C376.104706,212.321808 386.869141,197.590530 405.488495,194.262634 
	C419.174744,191.816452 433.518005,199.556000 440.264709,213.330673 
	C450.738708,234.715302 461.026672,256.190979 471.433197,277.608734 
	C475.218018,285.398224 479.174103,293.104523 482.952209,300.897186 
	C492.261963,320.099274 485.012695,341.276428 466.168396,347.706635 
	C449.389130,353.432129 433.113647,347.939728 424.572479,330.704102 
	C410.003815,301.305267 395.799530,271.725952 381.443359,242.221832 
	C379.981140,239.216675 378.796143,236.113007 378.041077,232.392395 
M469.377563,326.686310 
	C473.020508,320.325806 472.539581,313.863647 469.471802,307.549561 
	C455.359680,278.504089 441.185822,249.488510 426.965576,220.495819 
	C421.979187,210.329407 412.056061,206.641449 402.457672,211.180298 
	C393.568481,215.383789 390.367065,225.936554 395.155762,236.006790 
	C401.087189,248.480057 407.214966,260.859894 413.249390,273.284241 
	C421.538330,290.350555 429.410126,307.635864 438.234009,324.420807 
	C445.214996,337.700195 459.029877,338.635651 469.377563,326.686310 
z"/>
<path fill="#000000" opacity="1.000000" stroke="none" 
	d="
M462.841492,221.391388 
	C465.984161,205.984085 476.507538,195.976151 491.247284,193.976273 
	C504.680023,192.153732 518.138306,199.837250 524.614441,213.030945 
	C538.846680,242.026062 553.086792,271.017334 567.304138,300.019806 
	C574.437805,314.571869 572.308533,330.344666 561.933777,340.173584 
	C545.279602,355.951569 520.589233,352.043091 510.240082,331.467102 
	C496.097321,303.348724 482.630493,274.891113 468.639954,246.694977 
	C464.709442,238.773499 461.643707,230.857468 462.841492,221.391388 
M497.263336,271.289581 
	C505.899445,288.922211 514.534485,306.555389 523.172302,324.187164 
	C525.385193,328.704315 528.627441,332.103485 533.518860,333.723053 
	C540.146423,335.917480 547.547913,333.947845 552.052490,328.517120 
	C557.566406,321.869568 557.730957,314.525391 554.075439,307.038300 
	C539.984924,278.178741 525.835144,249.348022 511.638336,220.540604 
	C506.538788,210.192902 496.419891,206.543747 486.659546,211.328583 
	C478.356628,215.398926 475.390533,226.457916 480.069458,236.082748 
	C485.671021,247.605392 491.316284,259.106842 497.263336,271.289581 
z"/>
<path fill="#000000" opacity="1.000000" stroke="none" 
	d="
M547.042969,221.567413 
	C550.074951,207.517136 558.243164,198.534698 571.643921,194.987671 
	C584.429016,191.603592 595.469482,195.641586 603.986206,205.445496 
	C612.280212,214.993057 614.415344,226.428391 609.735657,238.109085 
	C602.870117,255.245895 593.846619,271.410675 585.374023,287.801422 
	C582.442139,293.473358 575.640564,293.319550 572.760925,287.526581 
	C564.471375,270.850952 556.398193,254.065414 548.446838,237.225403 
	C546.193420,232.452942 546.449768,227.176010 547.042969,221.567413 
M570.525146,249.017166 
	C573.534363,254.266205 575.056885,260.325073 579.590576,266.033813 
	C585.128601,254.410919 590.877991,243.723816 595.281921,232.508423 
	C597.420837,227.061478 597.051575,220.633774 592.601318,215.525421 
	C586.920105,209.003967 577.684204,207.396042 570.372192,211.686432 
	C562.934753,216.050446 559.753296,226.035461 563.385010,234.467041 
	C565.420837,239.193619 567.919983,243.720627 570.525146,249.017166 
z"/>
<path fill="#000000" opacity="1.000000" stroke="none" 
	d="
M652.953735,408.031372 
	C651.259705,427.119659 639.445190,436.221191 621.848633,432.431122 
	C609.565308,429.785461 602.279419,419.896545 603.280579,407.229248 
	C604.270630,394.703522 612.986755,385.922180 625.419128,384.925323 
	C641.250305,383.655945 651.394775,392.009308 652.953735,408.031372 
M622.331604,398.655823 
	C618.921265,402.852417 617.938293,412.382538 620.418640,416.922546 
	C621.796509,419.444733 623.804810,420.813354 626.748047,421.022430 
	C634.326172,421.560608 638.359558,416.578125 637.541382,407.535126 
	C636.689880,398.124146 632.033630,395.145630 622.331604,398.655823 
z"/>
<path fill="#000000" opacity="1.000000" stroke="none" 
	d="
M699.858276,411.525513 
	C702.820190,420.584229 699.585388,427.635773 690.811768,431.138000 
	C682.719910,434.368134 674.522034,434.017029 666.468689,430.765167 
	C665.251953,430.273895 664.104309,429.515961 663.062195,428.704742 
	C659.119446,425.635376 656.395752,419.543854 658.022095,417.619232 
	C659.733154,415.594299 670.411011,416.850342 672.654846,419.445435 
	C673.947449,420.940399 675.488281,421.774628 677.400391,421.835907 
	C680.195557,421.925476 684.054504,422.586334 684.743469,419.343506 
	C685.561890,415.492096 681.420471,415.659760 678.855164,414.991760 
	C674.527039,413.864685 669.970276,413.693604 665.865784,411.613342 
	C657.152100,407.197052 656.008057,395.139130 663.794556,389.236786 
	C671.928833,383.070801 687.439087,383.444122 695.213379,390.047455 
	C696.213562,390.897034 697.084717,391.949280 697.831970,393.034149 
	C698.976196,394.695190 700.157410,396.650238 699.371887,398.597870 
	C698.427124,400.940491 695.931885,400.133026 694.037903,400.173828 
	C690.132202,400.257996 685.969910,401.117004 683.189331,397.028625 
	C682.817200,396.481445 681.695496,396.244080 680.908508,396.216370 
	C678.534363,396.132843 675.251282,395.030060 674.610168,398.332672 
	C674.003540,401.457581 677.300293,401.679230 679.453857,402.143494 
	C683.348999,402.983124 687.357971,403.310028 691.117920,404.750305 
	C694.575439,406.074768 697.924500,407.562958 699.858276,411.525513 
z"/>
<path fill="#000000" opacity="1.000000" stroke="none" 
	d="
M298.972046,431.292969 
	C294.332001,416.561432 289.983429,402.132751 285.621613,387.660156 
	C290.651855,385.634552 293.157532,386.702057 294.340942,391.469238 
	C296.384247,399.700500 298.826782,407.832611 301.099518,416.006958 
	C301.449585,417.266052 301.560486,418.635681 303.398438,420.007019 
	C305.884125,411.712097 308.291077,403.688446 310.691559,395.662842 
	C311.216034,393.909302 311.808777,392.169312 312.208435,390.386871 
	C312.804932,387.726562 314.208099,386.517365 317.085663,386.548035 
	C319.872772,386.577728 321.417267,387.648071 322.163025,390.274078 
	C324.480804,398.436096 326.886047,406.573303 329.205048,414.734985 
	C329.750519,416.654694 330.226868,418.575256 331.692139,420.510193 
	C334.982422,412.951538 336.324554,405.077667 338.540741,397.474976 
	C339.145569,395.400055 339.653046,393.296112 340.284210,391.229584 
	C341.832214,386.161224 342.366333,385.914795 347.934021,387.653625 
	C347.584442,392.974182 345.471069,397.912567 344.120361,403.011871 
	C341.905060,411.375061 339.363739,419.651398 337.062714,427.992676 
	C336.237305,430.984741 334.676392,432.393707 331.387543,432.296265 
	C328.139160,432.200012 327.265411,430.376373 326.515961,427.718964 
	C323.673767,417.641052 320.654938,407.612976 316.816925,397.470428 
	C313.991089,407.040466 311.154907,416.607483 308.342987,426.181610 
	C306.425964,432.708679 306.015472,432.967102 298.972046,431.292969 
z"/>
<path fill="#000000" opacity="1.000000" stroke="none" 
	d="
M360.630676,429.592621 
	C349.718384,420.349091 347.795044,403.932617 356.055328,392.921417 
	C360.862427,386.513428 370.984131,383.682556 380.109436,386.193817 
	C388.305115,388.449280 394.360413,395.438232 395.255371,404.135986 
	C396.034912,411.712341 395.640717,419.165131 390.424774,425.391907 
	C383.365875,433.818787 372.432770,435.411560 360.630676,429.592621 
M387.211945,416.379395 
	C388.220215,411.929535 388.228821,407.432800 387.400757,402.989532 
	C385.946289,395.185242 380.386322,390.963379 372.436432,391.375122 
	C364.601562,391.780914 359.969849,396.243317 359.235413,404.292450 
	C358.994324,406.934631 358.966217,409.617523 359.100250,412.268677 
	C359.504517,420.262573 363.320831,425.273956 369.796021,426.545227 
	C377.673676,428.091797 383.532623,424.876587 387.211945,416.379395 
z"/>
<path fill="#000000" opacity="1.000000" stroke="none" 
	d="
M432.610046,389.174561 
	C441.690552,396.913361 440.265564,406.055206 428.849731,413.311371 
	C430.627960,416.210846 432.480438,419.096252 434.193329,422.062286 
	C435.909729,425.034363 438.276337,427.658295 439.463776,431.333801 
	C435.187561,433.007568 432.075165,432.684082 429.872528,428.313507 
	C428.156525,424.908630 425.969727,421.739380 423.962860,418.483459 
	C422.743958,416.505890 421.625549,414.583679 418.856903,414.219421 
	C411.280243,413.222473 410.235535,414.058075 410.238708,421.802094 
	C410.239655,424.131561 410.212097,426.461060 410.211700,428.790527 
	C410.211334,431.032349 409.148743,432.146118 406.861694,432.160583 
	C404.559753,432.175110 403.549683,431.096497 403.557770,428.813904 
	C403.603668,415.834351 403.609192,402.854736 403.642944,389.875153 
	C403.646912,388.341339 403.678955,386.700775 405.817200,386.650940 
	C414.724457,386.443512 423.789124,384.502441 432.610046,389.174561 
M418.450012,407.994720 
	C419.937988,407.967163 421.432678,408.020416 422.912720,407.897400 
	C427.936798,407.479797 430.565002,405.021576 430.722015,400.685028 
	C430.897980,395.825958 428.553802,392.958557 423.458710,392.424103 
	C420.185120,392.080658 416.852905,392.292297 413.546936,392.262634 
	C411.622833,392.245361 410.344086,392.981049 410.314026,395.112640 
	C410.288330,396.931458 410.265656,398.750458 410.261108,400.569427 
	C410.242706,407.922150 410.245483,407.922150 418.450012,407.994720 
z"/>
<path fill="#000000" opacity="1.000000" stroke="none" 
	d="
M470.373352,386.219177 
	C475.151642,387.850800 479.017334,390.014465 480.675842,394.722778 
	C481.283630,396.448303 482.003418,398.491791 479.581360,399.383179 
	C477.486084,400.154327 475.385437,400.216064 473.918701,397.839813 
	C470.088806,391.634827 463.480408,389.651367 456.970825,392.670715 
	C454.694611,393.726471 453.224548,395.375854 453.166962,398.048004 
	C453.108765,400.746979 454.479828,402.617035 456.854004,403.420013 
	C459.834869,404.428223 462.949432,405.064728 466.032928,405.739838 
	C469.951691,406.597870 473.863922,407.472961 477.265320,409.721497 
	C482.380066,413.102753 484.090576,418.764587 481.480103,424.149597 
	C477.884277,431.567261 470.876129,433.130981 463.773987,433.007507 
	C456.381805,432.878967 448.967041,431.513397 445.501099,423.377869 
	C444.851318,421.852600 444.053711,420.110626 445.699585,418.819550 
	C447.090576,417.728333 448.846863,417.915833 450.488159,418.485901 
	C451.535004,418.849548 451.841248,419.793030 452.314270,420.697540 
	C455.657135,427.089661 467.238342,429.108887 472.627686,424.291504 
	C476.051514,421.231049 475.567810,416.617218 471.479828,414.333160 
	C468.381592,412.602020 464.891266,412.015900 461.446838,411.436981 
	C458.136169,410.880585 454.909332,410.111725 451.971741,408.459717 
	C443.863556,403.899841 443.225616,394.216766 450.813995,388.771637 
	C456.656555,384.579224 463.278870,384.686951 470.373352,386.219177 
z"/>
<path fill="#000000" opacity="1.000000" stroke="none" 
	d="
M530.217529,419.978882 
	C530.208435,422.969452 530.169189,425.464935 530.199707,427.959625 
	C530.230042,430.440063 529.545410,432.172882 526.609009,432.208466 
	C523.720520,432.243469 522.858398,430.632660 522.864685,428.102264 
	C522.874268,424.276398 522.755066,420.447357 522.876831,416.625580 
	C522.975830,413.517365 521.827026,412.014191 518.553711,412.072052 
	C513.066772,412.169037 507.575745,412.084747 502.087158,412.015900 
	C499.377899,411.981934 498.135620,413.207520 498.170563,415.929108 
	C498.221771,419.920441 498.142426,423.913300 498.157379,427.905365 
	C498.166534,430.351288 497.570435,432.159943 494.602417,432.187134 
	C491.753265,432.213196 490.820770,430.666534 490.822571,428.104095 
	C490.831482,415.461975 490.834076,402.819855 490.803864,390.177795 
	C490.798187,387.803192 491.633942,386.342346 494.233185,386.344055 
	C496.867218,386.345764 498.232239,387.496460 498.179016,390.265594 
	C498.108704,393.923584 498.275146,397.587738 498.149139,401.242645 
	C498.042999,404.321320 499.063629,405.874359 502.419434,405.771484 
	C507.737457,405.608459 513.067017,405.621185 518.386047,405.765686 
	C521.570374,405.852173 522.959778,404.631805 522.855286,401.400909 
	C522.737000,397.746124 522.894958,394.083130 522.886414,390.423828 
	C522.880554,387.895508 523.695496,386.223724 526.602722,386.324829 
	C529.382751,386.421539 530.270630,387.936279 530.252686,390.539703 
	C530.186157,400.187225 530.221130,409.835449 530.217529,419.978882 
z"/>
<path fill="#000000" opacity="1.000000" stroke="none" 
	d="
M567.129456,386.061676 
	C573.244690,386.240082 578.937195,385.442932 584.455139,387.403290 
	C591.278198,389.827332 594.431396,394.157501 594.316040,401.275726 
	C594.215271,407.495819 590.731628,411.847778 584.225464,413.954041 
	C579.846802,415.371613 575.328064,415.190643 570.841858,415.065308 
	C567.447388,414.970459 565.933044,416.268890 566.116577,419.743835 
	C566.274475,422.734100 566.136414,425.740875 566.103088,428.740051 
	C566.078918,430.913300 565.105591,432.146210 562.780518,432.190765 
	C560.387878,432.236633 558.880066,431.340881 558.876526,428.782837 
	C558.858582,415.784637 558.696716,402.782990 558.956726,389.789948 
	C559.064453,384.404236 563.766357,386.698730 567.129456,386.061676 
M578.845154,408.665314 
	C583.008728,408.128113 586.199585,406.439423 586.652405,401.761566 
	C587.020020,397.964264 586.010925,394.777893 582.126648,393.242615 
	C577.628784,391.464752 572.935303,392.290253 568.314331,392.441711 
	C566.670166,392.495605 566.406494,393.929321 566.184021,395.336639 
	C564.288269,407.329315 565.514221,408.797363 577.476685,408.695801 
	C577.643005,408.694397 577.809326,408.691711 578.845154,408.665314 
z"/>
<path fill="#000000" opacity="1.000000" stroke="none" 
	d="
M547.893127,413.997437 
	C547.891541,418.988037 547.903198,423.479309 547.878357,427.970398 
	C547.864990,430.379150 547.227661,432.180786 544.249878,432.218384 
	C541.277771,432.255859 540.648926,430.643433 540.657288,428.101868 
	C540.698792,415.459900 540.684631,402.817596 540.643738,390.175598 
	C540.636230,387.867523 541.267334,386.289673 543.896301,386.145630 
	C546.692993,385.992401 547.855225,387.445190 547.863525,390.044281 
	C547.888550,397.862152 547.884155,405.680084 547.893127,413.997437 
z"/>
</svg>